/* XPM */
static char *e9d010b5de614022cff3ee6fef7600ac66hSLkgvqLId1qZQ[] = {
/* columns rows colors chars-per-pixel */
"16 16 112 2 ",
"   c #1D1113",
".  c #1E1214",
"X  c #220E17",
"o  c #230E17",
"O  c #230F18",
"+  c #240E1A",
"@  c #250F1B",
"#  c #260E1B",
"$  c #201013",
"%  c #211215",
"&  c #211217",
"*  c #221316",
"=  c #231316",
"-  c #201615",
";  c #221318",
":  c #23121A",
">  c #241019",
",  c #241319",
"<  c #271219",
"1  c #261319",
"2  c #25111A",
"3  c #26111A",
"4  c #24131B",
"5  c #26121B",
"6  c #27121B",
"7  c #211519",
"8  c #231419",
"9  c #211718",
"0  c #221618",
"q  c #231719",
"w  c #23141B",
"e  c #22161A",
"r  c #241518",
"t  c #251518",
"y  c #24151A",
"u  c #26151B",
"i  c #26101C",
"p  c #27131C",
"a  c #27131E",
"s  c #25141C",
"d  c #27161C",
"f  c #2A151A",
"g  c #28101D",
"h  c #28121E",
"j  c #29131F",
"k  c #2A121F",
"l  c #2A151C",
"z  c #2A171D",
"x  c #2A151E",
"c  c #29191C",
"v  c #2C191F",
"b  c #2D1821",
"n  c #321E27",
"m  c #332026",
"M  c #352228",
"N  c #3A222F",
"B  c #38242D",
"V  c #3C252F",
"C  c #3D2330",
"Z  c #3E2633",
"A  c #3D2831",
"S  c #3F2A33",
"D  c #402633",
"F  c #442A37",
"G  c #4F2A32",
"H  c #482F35",
"J  c #482E37",
"K  c #4A2F36",
"L  c #492A39",
"P  c #4D2B39",
"I  c #4A2E3C",
"U  c #512D37",
"Y  c #522E3A",
"T  c #48313B",
"R  c #49323A",
"E  c #4C3339",
"W  c #49313E",
"Q  c #52333B",
"!  c #52323F",
"~  c #54303C",
"^  c #53343C",
"/  c #59333E",
"(  c #58353C",
")  c #4E3441",
"_  c #4D3640",
"`  c #4F3542",
"'  c #503442",
"]  c #634551",
"[  c #674754",
"{  c #6B4751",
"}  c #674953",
"|  c #654A53",
" . c #674C53",
".. c #624B55",
"X. c #674B57",
"o. c #694B57",
"O. c #6D4955",
"+. c #6C4C57",
"@. c #6E4D56",
"#. c #6D4F57",
"$. c #694D59",
"%. c #684E59",
"&. c #694F5A",
"*. c #6C4E58",
"=. c #6E4E59",
"-. c #704F5A",
";. c #6F5058",
":. c #6E505C",
">. c #70505D",
",. c #72515C",
"<. c #71565F",
"1. c #715760",
/* pixels */
"G ( U Q ^ K H f 4 1 4 4 4 4 4 4 ",
"/ { @.;.#.} E f < 1 = 4 4 4 4 4 ",
"~ O.,.=.@.1.H 4 < 1 1 = = 4 4 4 ",
"Y =.@.} } <.R x < 1 8 4 4 = 4 4 ",
"P ,.[ o.X.&.T X g < 4 = 4 = 1 1 ",
"' =.] $.$..._ x 4 4 = 4 = 4 8 8 ",
"L ' I ) ` W C 4 < g 4 4 8 8 8 8 ",
"F C D Z Z C b O < 4 4 4 4 1 8 8 ",
"# p # # O O Z 4 p p 4 4 4 4 = 4 ",
"# b # b g x D x 4 4 4 4 = 4 4 t ",
"p 4 + < p 4 B & < < 4 = ; 8 = 8 ",
"4 4 4 4 4 X n X g 4 4 4 4 1 8 8 ",
"; 8 8 8 s d M v 1 1 = 4 4 = 1 w ",
"w w w . d 1 m v 1 < 4 = = 4 w w ",
". q 8 . t = c t 1 1 4 4 4 4 w w ",
"9 . q . t $ t $ 1 1 4 ; 4 s w w "
};
