/* XPM */
static char *_0dfcf2629e24670d55ec126bc74aca5QfLpZ4hxueNE26Mh[] = {
/* columns rows colors chars-per-pixel */
"16 16 196 2 ",
"   c #1F0A11",
".  c #1C0B15",
"X  c #1F0E16",
"o  c #1D0D18",
"O  c #1F0D19",
"+  c #1F0F1A",
"@  c #200F15",
"#  c #210D16",
"$  c #240F16",
"%  c #200F19",
"&  c #231316",
"*  c #251015",
"=  c #251017",
"-  c #241117",
";  c #261116",
":  c #251216",
">  c #211018",
",  c #221119",
"<  c #231218",
"1  c #20101A",
"2  c #21101A",
"3  c #23121A",
"4  c #241019",
"5  c #251019",
"6  c #261118",
"7  c #251218",
"8  c #271219",
"9  c #25111A",
"0  c #26111A",
"q  c #24131B",
"w  c #27121B",
"e  c #27141A",
"r  c #26151B",
"t  c #27171A",
"y  c #23121C",
"u  c #23131D",
"i  c #23111F",
"p  c #23131E",
"a  c #24101C",
"s  c #24131D",
"d  c #25141C",
"f  c #26151D",
"g  c #26151F",
"h  c #27161E",
"j  c #281318",
"k  c #28131A",
"l  c #291419",
"z  c #29161A",
"x  c #28131C",
"c  c #28141D",
"v  c #29151E",
"b  c #28171F",
"n  c #29181E",
"m  c #271020",
"M  c #271022",
"N  c #251520",
"B  c #261621",
"V  c #271721",
"C  c #271722",
"Z  c #2A1325",
"A  c #2A1921",
"S  c #291822",
"D  c #2E1920",
"F  c #2F1A23",
"G  c #2A1A25",
"H  c #2D1924",
"J  c #2E1E29",
"K  c #361F2F",
"L  c #3C1F3E",
"P  c #33232E",
"I  c #36252D",
"U  c #35242E",
"Y  c #34242F",
"T  c #35252F",
"R  c #352530",
"E  c #362631",
"W  c #372731",
"Q  c #362432",
"!  c #372732",
"~  c #382632",
"^  c #3D2636",
"/  c #392934",
"(  c #3E2A35",
")  c #3F2B37",
"_  c #3C2C37",
"`  c #3E2238",
"'  c #3F2339",
"]  c #3E2739",
"[  c #3D203F",
"{  c #3F223E",
"}  c #3D2D38",
"|  c #3F2F3A",
" . c #4E2F35",
".. c #412639",
"X. c #41253B",
"o. c #42273A",
"O. c #40233F",
"+. c #472838",
"@. c #422B3D",
"#. c #472A3E",
"$. c #4E2E3B",
"%. c #48283D",
"&. c #4A293C",
"*. c #4A293E",
"=. c #4D2B3C",
"-. c #4C2B3E",
";. c #4B2C3C",
":. c #4A2E3D",
">. c #4C2D3D",
",. c #512F3D",
"<. c #502E3F",
"1. c #40303B",
"2. c #4C303F",
"3. c #513238",
"4. c #50303D",
"5. c #52323D",
"6. c #53313F",
"7. c #53333E",
"8. c #62453D",
"9. c #63463E",
"0. c #3E2140",
"q. c #442743",
"w. c #4F2F44",
"e. c #4F2D46",
"r. c #4C2B48",
"t. c #4E2B4B",
"y. c #4B2D49",
"u. c #4F2C4C",
"i. c #512F40",
"p. c #502F44",
"a. c #502E47",
"s. c #512F48",
"d. c #502D4D",
"f. c #4F3040",
"g. c #4D3044",
"h. c #4E304C",
"j. c #4F304F",
"k. c #533340",
"l. c #553341",
"z. c #513045",
"x. c #52304B",
"c. c #51304D",
"v. c #54324D",
"b. c #523051",
"n. c #513251",
"m. c #553354",
"M. c #664941",
"N. c #674A42",
"B. c #694A45",
"V. c #6A4B46",
"C. c #6B4C47",
"Z. c #6D4F45",
"A. c #64454B",
"S. c #65464C",
"D. c #67484E",
"F. c #674A4E",
"G. c #6A4A4B",
"H. c #694C48",
"J. c #6A4D49",
"K. c #6C4D48",
"L. c #6C4D4A",
"P. c #6D4E4B",
"I. c #68494E",
"U. c #69484F",
"Y. c #6B4F4E",
"T. c #6D4D4E",
"R. c #6C4E4E",
"E. c #6E4E4F",
"W. c #6E5046",
"Q. c #6F504D",
"!. c #6E514D",
"~. c #6C504F",
"^. c #6F524E",
"/. c #694A50",
"(. c #6C4B52",
"). c #6C4D52",
"_. c #6C4F53",
"`. c #6F4E55",
"'. c #6E4F57",
"]. c #6E4D58",
"[. c #704F56",
"{. c #6E5050",
"}. c #6F5058",
"|. c #6F515D",
" X c #725350",
".X c #705254",
"XX c #715355",
"oX c #725456",
"OX c #735557",
"+X c #71505B",
"@X c #72535B",
"#X c #70505D",
"$X c #71535F",
"%X c #74535E",
"&X c #73545C",
"*X c #735360",
/* pixels */
"u.a.$.3.3.7.a.d.d.e.7. . .k.e.u.",
"v.*.@X.X.X@X*.v.d.i.`.oXOX}.z.x.",
"i.%XT.C.Z.).%X>.-.`.U.B.V.T.@X>.",
",.`.L.Z.Z.T.[.7.6.U.Q.W.Z. X(.l.",
"7.A.!.8.8.!.D.7.7.D.C.M.V.J.U.7.",
"-.$X).~.{.{.*X>.&.|.D.T.T.D.|.+.",
"b.h.*.2.g.*.c.h.m.y.g.:.:.g.r.b.",
"0.{ ` ..o.X.0.0.[ q.` ....` q.[ ",
"_ ^ w w # w M M Z i w w - k U @.",
"o., - t - b ( p i , - & - - H U ",
"E + g V - , E p i g g u N + # N ",
"N | P E | E X G ~ _ ! W _ R J R ",
"I g , n   A A X , g w , S r # g ",
"r # b , v i - - - r - # x i - r ",
"j - F w $ # j z j r i w w w - - ",
"* w $ w k D   j - - k x $ j j - "
};
