/* XPM */
static char *_4a4cc4ec9844379ad3237d9455e86dbkfnFEAJwRrRai5IT[] = {
/* columns rows colors chars-per-pixel */
"16 16 109 2 ",
"   c #220F13",
".  c #200F17",
"X  c #220E17",
"o  c #230F1A",
"O  c #250F1B",
"+  c #201013",
"@  c #211114",
"#  c #221215",
"$  c #221117",
"%  c #231316",
"&  c #251216",
"*  c #241415",
"=  c #251516",
"-  c #241417",
";  c #211018",
":  c #221119",
">  c #231218",
",  c #21101A",
"<  c #23121A",
"1  c #241319",
"2  c #271219",
"3  c #261319",
"4  c #24101B",
"5  c #24131B",
"6  c #26121B",
"7  c #23141B",
"8  c #251518",
"9  c #271418",
"0  c #261619",
"q  c #25141A",
"w  c #26151B",
"e  c #25111C",
"r  c #27111D",
"t  c #27131E",
"y  c #25141C",
"u  c #27161C",
"i  c #25141E",
"p  c #27161E",
"a  c #281119",
"s  c #2B141A",
"d  c #29131F",
"f  c #2A151C",
"g  c #28171D",
"h  c #29151E",
"j  c #28141F",
"k  c #2B181C",
"l  c #2A191F",
"z  c #2A1921",
"x  c #301F27",
"c  c #312026",
"v  c #332228",
"b  c #36252D",
"n  c #38242F",
"m  c #3A262F",
"M  c #3B2330",
"N  c #3D2733",
"B  c #3E2633",
"V  c #3A2931",
"C  c #3C2833",
"Z  c #3C2B33",
"A  c #422A37",
"S  c #492E35",
"D  c #482E37",
"F  c #4C2E36",
"G  c #472B39",
"H  c #4D2B39",
"J  c #492F3C",
"K  c #522832",
"L  c #522C37",
"P  c #522E3A",
"I  c #552F3A",
"U  c #47323B",
"Y  c #47333E",
"T  c #49323A",
"R  c #4C3339",
"E  c #55313B",
"W  c #51333F",
"Q  c #54333C",
"!  c #5B333C",
"~  c #5C323C",
"^  c #4B3740",
"/  c #4C3441",
"(  c #4C3642",
")  c #503442",
"_  c #614551",
"`  c #674754",
"'  c #6E4651",
"]  c #674953",
"[  c #614C55",
"{  c #664C57",
"}  c #684853",
"|  c #694B53",
" . c #694B57",
".. c #6E4855",
"X. c #6D4C57",
"o. c #6E4F57",
"O. c #664F59",
"+. c #694D59",
"@. c #6D4D58",
"#. c #6F4E59",
"$. c #714B56",
"%. c #724E58",
"&. c #724E5A",
"*. c #67505A",
"=. c #6E505C",
"-. c #70505D",
";. c #74505C",
":. c #73555F",
">. c #725760",
/* pixels */
"5 5 5 5 > q 5 a a S F Q E L ! K ",
"5 5 5 5 q > & a k R } o.;.$.' ! ",
"5 7 5 5 & q a a a S :.@.%.%...I ",
"5 1 1 & 5 q q 5 k T >.} ` o.%.P ",
"5 5 1 1 1 1 5 5 $ Y *.{  .` =.H ",
"1 & 1 1 1 1 5 5 h Y [ *.+._ #.) ",
"q a q 1 1 5 5 5 5 m Y ( / Y ) G ",
"5 & q 1 1 7 5 5 . z M B B B M A ",
"q > q > 5 5 5 5 > V , o z o z O ",
"> q > q 5 5 5 5 p Z 7 z O o r O ",
"q > q > 5 5 5 5 > b > 7 5 o z o ",
"> q > q > & 7 q . x o > 7 7 7 o ",
"p 7 5 5 q > q > g v q p > > q > ",
"> 7 > & > q > q l c u q o 5 q q ",
"7 7 5 5 q > 5 q = k * 1 @ q = = ",
"7 7 5 5 > q & & . = * = @ q * * "
};
