/* XPM */
static char *_8b78c5bb92c42338ff0ebe99e6cbfb5V1NDFaASDsZZIFcc[] = {
/* columns rows colors chars-per-pixel */
"16 16 218 2 ",
"   c #1A0B12",
".  c #1C0B13",
"X  c #1E0D13",
"o  c #1C0D14",
"O  c #1D0D17",
"+  c #1F0E16",
"@  c #200D11",
"#  c #200C15",
"$  c #210E14",
"%  c #220F15",
"&  c #220E17",
"*  c #200C18",
"=  c #230F18",
"-  c #250E18",
";  c #260F19",
":  c #240E1A",
">  c #250F1B",
",  c #231014",
"<  c #211016",
"1  c #231016",
"2  c #211217",
"3  c #241115",
"4  c #241117",
"5  c #251216",
"6  c #261317",
"7  c #211018",
"8  c #201118",
"9  c #231218",
"0  c #21101A",
"q  c #21111B",
"w  c #22111B",
"e  c #22131A",
"r  c #241019",
"t  c #271018",
"y  c #251218",
"u  c #241319",
"i  c #261319",
"p  c #24131B",
"a  c #231419",
"s  c #23141B",
"d  c #271418",
"f  c #25141A",
"g  c #27141A",
"h  c #26151B",
"j  c #25161B",
"k  c #21111C",
"l  c #26101C",
"z  c #27111D",
"x  c #24131D",
"c  c #27131C",
"v  c #25141C",
"b  c #24151C",
"n  c #26151D",
"m  c #25161D",
"M  c #27161C",
"N  c #24141E",
"B  c #24141F",
"V  c #26151F",
"C  c #27161E",
"Z  c #26171E",
"A  c #28111B",
"S  c #281519",
"D  c #28151B",
"F  c #29161A",
"G  c #2A171B",
"H  c #28131C",
"J  c #29161C",
"K  c #28171D",
"L  c #29151E",
"P  c #2A151E",
"I  c #2B181C",
"U  c #2C191D",
"Y  c #261620",
"T  c #261621",
"R  c #271721",
"E  c #271722",
"W  c #291320",
"Q  c #2C1623",
"!  c #2A1921",
"~  c #2D1C24",
"^  c #34232B",
"/  c #33232E",
"(  c #34242E",
")  c #35242E",
"_  c #3B282C",
"`  c #362630",
"'  c #372731",
"]  c #382430",
"[  c #3F2236",
"{  c #392830",
"}  c #3A2931",
"|  c #392933",
" . c #392934",
".. c #3B2B35",
"X. c #3E2A36",
"o. c #3A203B",
"O. c #3E2238",
"+. c #3B213C",
"@. c #3D233C",
"#. c #3F253E",
"$. c #492C30",
"%. c #4C2D33",
"&. c #402339",
"*. c #41243A",
"=. c #40243B",
"-. c #41253B",
";. c #43263C",
":. c #42263D",
">. c #402C38",
",. c #4A2B3D",
"<. c #4A2A3F",
"1. c #4F2E3F",
"2. c #522C37",
"3. c #502C38",
"4. c #552F3A",
"5. c #542E3B",
"6. c #522E3C",
"7. c #502E3E",
"8. c #4E3135",
"9. c #40303A",
"0. c #41313B",
"q. c #503137",
"w. c #53333E",
"e. c #67463F",
"r. c #412740",
"t. c #402641",
"y. c #422843",
"u. c #4B2E42",
"i. c #4E2F41",
"p. c #4D2D42",
"a. c #4C2C43",
"s. c #4E2E43",
"d. c #4B2E44",
"f. c #492D46",
"g. c #4A2C46",
"h. c #4C2E46",
"j. c #4F2F46",
"k. c #4D2F49",
"l. c #502F42",
"z. c #542F40",
"x. c #4F3042",
"c. c #4E3048",
"v. c #4F3149",
"b. c #4E304A",
"n. c #543243",
"m. c #503440",
"M. c #563641",
"N. c #533245",
"B. c #503047",
"V. c #543346",
"C. c #563844",
"Z. c #543348",
"A. c #59384B",
"S. c #5A3B4B",
"D. c #694644",
"F. c #694746",
"G. c #694843",
"H. c #6B4947",
"J. c #6D4A44",
"K. c #6C4947",
"L. c #6E4D46",
"P. c #6F4E47",
"I. c #674748",
"U. c #684849",
"Y. c #69494A",
"T. c #6B494A",
"R. c #6E4B49",
"E. c #6F4B4B",
"W. c #6B4C4A",
"Q. c #6C4D48",
"!. c #6F4C48",
"~. c #6E4C4B",
"^. c #684A4C",
"/. c #694B4D",
"(. c #6B4B4C",
"). c #68494E",
"_. c #6B4B4E",
"`. c #6C4C4D",
"'. c #6E4F4D",
"]. c #6C4C4F",
"[. c #6D4F4F",
"{. c #714E48",
"}. c #71504B",
"|. c #74534C",
" X c #654554",
".X c #674953",
"XX c #6B4B50",
"oX c #6A4B51",
"OX c #684A52",
"+X c #694A52",
"@X c #6B4C51",
"#X c #6B4E53",
"$X c #6C4E50",
"%X c #6E4E51",
"&X c #6C4D52",
"*X c #6C4F53",
"=X c #6E4E53",
"-X c #6B4D55",
";X c #6C4D55",
":X c #6E4F55",
">X c #6F4E57",
",X c #694859",
"<X c #6D4D58",
"1X c #6D4F59",
"2X c #6F4D5B",
"3X c #704D51",
"4X c #714E52",
"5X c #734E55",
"6X c #6F5055",
"7X c #715156",
"8X c #735057",
"9X c #725358",
"0X c #755058",
"qX c #765158",
"wX c #775259",
"eX c #75515B",
"rX c #75515D",
"tX c #76525E",
/* pixels */
"B.<.Z.1.w.3.5.5.5.2.6.1.n.B.i.l.",
"i.S.,X2XtXqX0X5XqXwX0XtX2X XA.<.",
"w.>X>X7X4XT.{.T.D.{.T.4X%X>X2XM.",
"8.9X`.`.H.G.T.J.{.|.K.T.I.^.oX%.",
"$.#X^.[.W.W.{.L.G.L.H.'.W.#X6X8.",
"C.2X#X6X#X^./.H.T.%X].#XoX.X.Xw.",
"f.b.b.f.h.h.B.n.i.i.i.u.c.b.b.f.",
"y.o.:.@.;.[ &.&.*.*.;.@.@.@.o.t.",
"..] H x y H ; y H ; H x ; Q O ;.",
"| ! & V f 1 & I U _ 1 f ; + ~ ^ ",
"/ E N w k x V 8 x ) w V R 8 R N ",
"E x ) ] ..|  .R ' V 0.' ' X.k  .",
"] V H V f + e e 8 j . V ! . V f ",
"f X 6 f f e K 1 e j f 1 e e K f ",
"6 U f f % F H w w f I 5 5 1 F X ",
"5 5 & F f f & H H + H 5 f , 6 S "
};
