/* XPM */
static char *d773e45eee7c467899a34990603d0fb4n6XV0OBqonbjlRyg[] = {
/* columns rows colors chars-per-pixel */
"16 16 4 1 ",
"  c #3C243A",
". c #25131A",
"X c #C09344",
"o c #FFD569",
/* pixels */
"                ",
"                ",
"                ",
"       ..       ",
"      .XX.      ",
"      .Xo.      ",
"      .Xo.      ",
"      .XX.      ",
"      .XX.      ",
"      .Xo.      ",
"      .Xo.      ",
"      .XX.      ",
"       ..       ",
"                ",
"                ",
"                "
};
