/* XPM */
static char *d49df60534b2450aab8d8892f9b51850wqG8BRiktje7Snt0[] = {
/* columns rows colors chars-per-pixel */
"16 16 5 1 ",
"  c #3C243A",
". c #25131A",
"X c #C09344",
"o c #FFD569",
"O c #FFF1CC",
/* pixels */
"                ",
"                ",
"                ",
"       ..       ",
"      .XX.      ",
"     .XOoX.     ",
"    .XOOoOX.    ",
"    .XOXXoX.    ",
"    .XoXXoX.    ",
"    .XOoooX.    ",
"     .XooX.     ",
"      .XX.      ",
"       ..       ",
"                ",
"                ",
"                "
};
