/* XPM */
static char *ddfa886b3c384bfaba75e191cd8409fbEpHDvXXgG3jYm0hG[] = {
/* columns rows colors chars-per-pixel */
"16 16 13 1 ",
"  c #331B31",
". c #351D33",
"X c #361E34",
"o c #371F35",
"O c #382036",
"+ c #392137",
"@ c #3A2238",
"# c #3B2339",
"$ c #3C243A",
"% c #3D253B",
"& c #3E263C",
"* c #3F273D",
"= c #40283E",
/* pixels */
"$$$&=&&$oO&&$$&&",
"&$$&$&$&O$=&&$&&",
"=&&&$$&$O@@$@$$$",
"Ooo...ooooOO@$$$",
"@$&&$&&$$$$@$&&&",
"o@$$@&$@&&&&&&&$",
"o$==&==&@&$$$&$@",
".@&$$$&@O@$$$$&&",
"O$&&$$$&O$&&&&&$",
"@$&&&$$$o$$$$$$$",
"@$$&$$$& ooooOoo",
"$$&$&$$&o@$$@$$@",
"$$$&&$&$O$&=&=&&",
"$&&$$&$&o@$$$$$$",
"&$$$&$&$@&=&&&&&",
"&&$$$&$&$=&$@$$&"
};
