/* XPM */
static char *b100b101594d4177ef39d5f92b90cc43wg2ojkT4xwK70zqB[] = {
/* columns rows colors chars-per-pixel */
"16 16 117 2 ",
"   c #240C1C",
".  c #280E1B",
"X  c #280D1C",
"o  c #290F1C",
"O  c #290E1D",
"+  c #280D1E",
"@  c #290E1F",
"#  c #2A0F1E",
"$  c #271217",
"%  c #261317",
"&  c #231417",
"*  c #241417",
"=  c #241319",
"-  c #24131B",
";  c #26121B",
":  c #27121B",
">  c #211519",
",  c #231419",
"<  c #23141B",
"1  c #27111D",
"2  c #281020",
"3  c #291121",
"4  c #2B1021",
"5  c #2D1221",
"6  c #2C1424",
"7  c #4C2E30",
"8  c #4D2F31",
"9  c #4F2B39",
"0  c #4C2E3A",
"q  c #4B2A3F",
"w  c #4C2B3C",
"e  c #4A2E3D",
"r  c #4C2D3C",
"t  c #4E2C3C",
"y  c #4F2D3D",
"u  c #4E2D3E",
"i  c #4E2F3E",
"p  c #502E3E",
"a  c #4E3032",
"s  c #4E303C",
"d  c #4F313D",
"f  c #4F303F",
"g  c #523432",
"h  c #503234",
"j  c #51333B",
"k  c #50323E",
"l  c #54303E",
"z  c #53353D",
"x  c #4E2D42",
"c  c #4E3241",
"v  c #4F3342",
"b  c #523040",
"n  c #503443",
"m  c #513045",
"M  c #523144",
"N  c #513544",
"B  c #563645",
"V  c #573746",
"C  c #56354A",
"Z  c #654643",
"A  c #664744",
"S  c #694843",
"D  c #6A4942",
"F  c #6B4A45",
"G  c #6B4947",
"H  c #694A47",
"J  c #6C4B46",
"K  c #6F4E47",
"L  c #67484D",
"P  c #684A4A",
"I  c #694B4B",
"U  c #6A4A4B",
"Y  c #6C4A48",
"T  c #6D4B49",
"R  c #6B4C49",
"E  c #6C4D4A",
"W  c #6C4D4B",
"Q  c #6E4C4A",
"!  c #6F4D4B",
"~  c #6D4E4B",
"^  c #684A4C",
"/  c #694B4D",
"(  c #6A4C4E",
")  c #6C4C4D",
"_  c #6D4E4C",
"`  c #6D4F4D",
"'  c #6E4F4D",
"]  c #6D4D4E",
"[  c #6C4E4E",
"{  c #704F48",
"}  c #6F504D",
"|  c #6F504E",
" . c #70514E",
".. c #664850",
"X. c #6A4B50",
"o. c #6A4B51",
"O. c #694B53",
"+. c #694C51",
"@. c #6B4C51",
"#. c #6B4C52",
"$. c #6B4E53",
"%. c #6D4E54",
"&. c #6B4B5A",
"*. c #724E58",
"=. c #6E5052",
"-. c #705051",
";. c #735553",
":. c #735057",
">. c #73525B",
",. c #745158",
"<. c #74505A",
"1. c #70505D",
"2. c #72505E",
"3. c #73515F",
"4. c #75545F",
"5. c #735360",
"6. c #765560",
/* pixels */
"$ * : : , $ : 1 2 e z a g a V x ",
"$ $ , , , & : 1 2 v L ^ | L &.C ",
"$ $ , : , & : 1   c O.[ ~ [ 1.b ",
"$ , , , , & : 1 4 b O.I A I 1.x ",
"& & < , , , : 1 O i %.[ F [ 4.p ",
"$ , < < , & , : O 0 X.~ S ~ ,.p ",
"& : , < , & , : 4 k #.~ F Y *.l ",
"& , , < > & , : . k ( { ~ { ,.l ",
", , < < , & , : . k ( F S Y ,.l ",
"$ , < < , & , : # 0 X.-.~ ~ *.p ",
"& , < < , & , : 4 0 ( ) D G ,.p ",
"$ & , , , & : 1 # 0 #.{ G ~ 4.p ",
"$ & , , , & : 1 O f X.I Z #.4.w ",
"* $ , : , * : 1 @ n %.I ~ { 4.m ",
"$ & < , = * 1 1   v X.=.;.%.&.m ",
"$ $ : : , & : 1 6 e k 7 g 8 B x "
};
