/* XPM */
static char *e57687cf27404572ddfc7570cd050857rZ7oGWJDw1T6mCIE[] = {
/* columns rows colors chars-per-pixel */
"16 16 53 1 ",
"  c #240C1C",
". c #260E1E",
"X c #261317",
"o c #231417",
"O c #241319",
"+ c #24131B",
"@ c #26121B",
"# c #231419",
"$ c #23141B",
"% c #27111D",
"& c #291121",
"* c #2A1222",
"= c #2B1323",
"- c #4C2D2B",
"; c #4E2F2D",
": c #4B2F3E",
"> c #4E3038",
", c #4F3139",
"< c #4C303F",
"1 c #523235",
"2 c #533336",
"3 c #543638",
"4 c #56383A",
"5 c #4F2C40",
"6 c #502D41",
"7 c #512E42",
"8 c #522F43",
"9 c #4D3140",
"0 c #4F3342",
"q c #553341",
"w c #523645",
"e c #644648",
"r c #654749",
"t c #6B4C4A",
"y c #6C4D4B",
"u c #684A4C",
"i c #6A4A4D",
"p c #6B4B4E",
"a c #6E4F4D",
"s c #6C4C4F",
"d c #674951",
"f c #684A52",
"g c #6C4E50",
"h c #6D4F51",
"j c #6E4E51",
"k c #6B4D55",
"l c #6C4E56",
"z c #6E4C5A",
"x c #6F4D5B",
"c c #704E5C",
"v c #6F5159",
"b c #725351",
"n c #765462",
/* pixels */
"XOO$$oO%=<>3-1q6",
"XO+$OoO% wluauz6",
"OO+$Oo@% <leypn6",
"XO+$Oo@%=:fjyjc6",
"XO+$$o@%*5dgyuc6",
"XO+$$o%%.9leapn6",
"XOO+$oO%.0vjbjc8",
"XO++ooO%*914;2q6",
"OO+$Oo@%*<>3-1q5",
"oO+$Oo@%.0kuguz6",
"XOO$Oo@%.<keyfnq",
"XOO$$o%%*<dhygx5",
"XOO+ooO%*5djyuc5",
"XO++$oO%+9keaan7",
"@O+$O$++.wvlbjc7",
"XO+$OO +*513;2q6"
};
