/* XPM */
static char *_5a2e565537e45da9f5565b266bd788eM95TRYOEZAysSxbw[] = {
/* columns rows colors chars-per-pixel */
"16 16 8 1 ",
"  c #3C243A",
". c #25131A",
"X c #373737",
"o c #895A45",
"O c #BF704D",
"+ c #62ABD4",
"@ c #90919E",
"# c #ADC1CF",
/* pixels */
"++            ++",
"+   ......     +",
"   .#@@@@@.     ",
"  .#@......     ",
"  .@@.#.#.#.    ",
"  .@#.#.#.#.    ",
"  .@#######.    ",
" ..X@@@..@.. ...",
".@#..@@@@.#..@@.",
".@#.XX.#.X#.@##.",
".o..X.@@#X.o... ",
"...ooO.#.O...   ",
"  .XXX.#.X.     ",
" .XXXXX.XXX.    ",
"+.XXXX.o.XX.   +",
"++            ++"
};
