/* XPM */
static char *_c8e1a6cabcb4fe4e19d76b7a0ee60807IQSZBoaQF88n1OV[] = {
/* columns rows colors chars-per-pixel */
"16 16 8 1 ",
"  c #3C243A",
". c #25131A",
"X c #373737",
"o c #895A45",
"O c #BF704D",
"+ c #62ABD4",
"@ c #90919E",
"# c #ADC1CF",
/* pixels */
"+   ......     +",
"   .#@@@@@.     ",
"  .#@......     ",
"  .@@.#.#.#.    ",
"  .@#.#.#.#.    ",
"  .@#######.    ",
"  ..@@@..@.     ",
"  .X.@@@@..   ..",
" ..XXX.#.X.. .@.",
".@#.X.@@#X#..@#.",
".@#.XX.#.X#.@#. ",
".o..oO.#.O.o..  ",
"...XXX..XX...   ",
" .XXXX.O.XX.    ",
" .XXXX.o.XX.    ",
"+              +"
};
