/* XPM */
static char *_6b8d76447c14c1da23cc882a39c2915QgyBzfZzcdhx871f[] = {
/* columns rows colors chars-per-pixel */
"16 16 8 1 ",
"  c #3C243A",
". c #25131A",
"X c #373737",
"o c #895A45",
"O c #BF704D",
"+ c #62ABD4",
"@ c #90919E",
"# c #ADC1CF",
/* pixels */
"+   ......     +",
"   .#@@@@@.     ",
"  .#@......     ",
"  .@@.#.#.#.    ",
"  .@#.#.#.#.    ",
"  .@#######.    ",
"  ..@@@..@.   ..",
" ..X.@@@@... .@.",
".@#.XX.#..#..@#.",
".@#.X.@@#X#.@#. ",
".o..XX.#.X.o..  ",
"...ooO.#.O...   ",
"  .XXX..XX.     ",
" .XXXX.O.XX.    ",
" .XXXX.o.XX.    ",
"+              +"
};
