/* XPM */
static char *_f6181a746ec465989e914f2fe8fea2a8oN5lYbLJNNc7VQG[] = {
/* columns rows colors chars-per-pixel */
"16 16 8 1 ",
"  c #3C243A",
". c #25131A",
"X c #373737",
"o c #895A45",
"O c #BF704D",
"+ c #62ABD4",
"@ c #90919E",
"# c #ADC1CF",
/* pixels */
"++            ++",
"+   ......     +",
"   .#@@@@@.     ",
"  .#@......     ",
"  .@@.#.#.#.    ",
"  .@#.#.#.#.    ",
"  .@#######.    ",
"  ..@@@..@.   ..",
" ..X.@@@@... .@.",
".@#.XX.#.X#..@#.",
".@#.X.@@#X#.@#. ",
".o..XX.#.X.o..  ",
"...XOO.#.O...   ",
" .XXXXX.XXX.    ",
"+.XXXX.o.XX.   +",
"++            ++"
};
