/* XPM */
static char * right_wall2_xpm[] = {
"16 16 5 1",
" 	c None",
".	c #4C2F49",
"+	c #25131A",
"@	c #78514F",
"#	c #6E4A48",
".......+++++++++",
".@####.+++++++++",
".@####.+++++++++",
".@####.+++++++++",
".@####.+++++++++",
".@####.+++++++++",
".@@@#@.+++++++++",
".......+++++++++",
".......+++++++++",
".@####.+++++++++",
".@####.+++++++++",
".@####.+++++++++",
".@####.+++++++++",
".@####.+++++++++",
".@@@#@.+++++++++",
".......+++++++++"};
