/* XPM */
static char *a1721be05cd94207db6e14b2b68b49e4h4LOJonjWwpWphl0[] = {
/* columns rows colors chars-per-pixel */
"16 16 7 1 ",
"  c #3C243A",
". c #25131A",
"X c #56587B",
"o c #BC4C51",
"O c #577EA1",
"+ c #62ABD4",
"@ c #A7D1E6",
/* pixels */
"o              o",
"                ",
"      .         ",
"     .+..       ",
"     .@++..     ",
"   . .@@+++.    ",
"  .+.+@@@++.    ",
"  .@++.....+.   ",
"  .@@.O+++O..   ",
"   .@O+++++O.   ",
"   ..OXX.+X..   ",
"    .O...+...   ",
"     .O++++O.   ",
"      .O+.O.    ",
"       .. .     ",
"o              o"
};
