/* XPM */
static char *result[] = {
/* columns rows colors chars-per-pixel */
"16 16 7 1 ",
"  c #25131A",
". c #56587B",
"X c #BC4C51",
"o c #577EA1",
"O c #62ABD4",
"+ c #A7D1E6",
"@ c #3C243A",
/* pixels */
"XX@@@@ @@@@@@@XX",
"X@@@@ O  @@@@@@X",
"@@@@@ O+O  @@@@@",
"@@@ @ O++OO @@@@",
"@@ O O++++O @@@@",
"@@ +OO     O @@@",
"@@ ++ oOOOo  @@@",
"@@@  oOOOOOo @@@",
"@@@  o.. O.  @@@",
"@@@@ o   O   @@@",
"@@@@@ oOOOOo @@@",
"@@@@@@ oO o @@@@",
"@@@@@@@  @ @@@@@",
"@@@@@@@@@@@@@@@@",
"X@@@@@@@@@@@@@@X",
"XX@@@@@@@@@@@@XX"
};
