/* XPM */
static char *_770644558124d51fccb84e65c8bdb73T4XzWSmD4MjfmtAZ[] = {
/* columns rows colors chars-per-pixel */
"16 16 228 2 ",
"   c #1F0916",
".  c #220F13",
"X  c #200F17",
"o  c #220E17",
"O  c #250D1A",
"+  c #240E1A",
"@  c #230E1D",
"#  c #270F1C",
"$  c #240F1E",
"%  c #260F1F",
"&  c #211114",
"*  c #231014",
"=  c #221215",
"-  c #241115",
";  c #251017",
":  c #271016",
">  c #261317",
",  c #241417",
"<  c #221119",
"1  c #261118",
"2  c #271219",
"3  c #24101C",
"4  c #26101C",
"5  c #27111D",
"6  c #26121E",
"7  c #28131A",
"8  c #281519",
"9  c #29161A",
"0  c #28101D",
"q  c #28131C",
"w  c #28141D",
"e  c #28181B",
"r  c #2B181E",
"t  c #2A0F20",
"y  c #2B1320",
"u  c #291423",
"i  c #2C1421",
"p  c #2E1623",
"a  c #2B1A20",
"s  c #2F1C20",
"d  c #301B2A",
"f  c #3A232B",
"g  c #39232F",
"h  c #3A262F",
"j  c #3D262E",
"k  c #3E272F",
"l  c #3D282F",
"z  c #3C2130",
"x  c #3E2133",
"c  c #3F2332",
"v  c #3A2430",
"b  c #392433",
"n  c #3C2632",
"m  c #3D2733",
"M  c #3B2434",
"N  c #3F2832",
"B  c #3F2935",
"V  c #3F2A39",
"C  c #40222E",
"Z  c #41232F",
"A  c #42292F",
"S  c #402130",
"D  c #422332",
"F  c #402433",
"G  c #412534",
"H  c #412635",
"J  c #422635",
"K  c #412637",
"L  c #422736",
"P  c #442534",
"I  c #462737",
"U  c #422831",
"Y  c #402D33",
"T  c #402B34",
"R  c #442836",
"E  c #442837",
"W  c #402C35",
"Q  c #412C35",
"!  c #422E37",
"~  c #472C35",
"^  c #462F37",
"/  c #4A2C34",
"(  c #422738",
")  c #44293A",
"_  c #412C3B",
"`  c #432C3C",
"'  c #442F3E",
"]  c #462F3F",
"[  c #4E2C3A",
"{  c #4D2D3C",
"}  c #532F39",
"|  c #423137",
" . c #47303A",
".. c #47323B",
"X. c #45303F",
"o. c #47333F",
"O. c #4A3339",
"+. c #4B313A",
"@. c #49323A",
"#. c #48333A",
"$. c #4A333B",
"%. c #4F3139",
"&. c #4C323B",
"*. c #48353B",
"=. c #4A333D",
"-. c #4E333C",
";. c #4C303F",
":. c #4B363F",
">. c #4C353D",
",. c #4E343D",
"<. c #4F363C",
"1. c #4E373F",
"2. c #51333B",
"3. c #54303A",
"4. c #52303E",
"5. c #53343C",
"6. c #53353D",
"7. c #54353D",
"8. c #54343F",
"9. c #55363E",
"0. c #56373F",
"q. c #51383E",
"w. c #50393F",
"e. c #53383F",
"r. c #57383E",
"t. c #4C2F41",
"y. c #473040",
"u. c #483141",
"i. c #493242",
"p. c #4E3143",
"a. c #4B3444",
"s. c #4C3545",
"d. c #4D3646",
"f. c #4F3840",
"g. c #4E3940",
"h. c #4F3A41",
"j. c #4E3942",
"k. c #4C3844",
"l. c #4F3A49",
"z. c #513140",
"x. c #533340",
"c. c #513242",
"v. c #543240",
"b. c #533541",
"n. c #533443",
"m. c #543441",
"M. c #563540",
"N. c #553542",
"B. c #553743",
"V. c #563643",
"C. c #513544",
"Z. c #513446",
"A. c #533746",
"S. c #543544",
"D. c #543545",
"F. c #563645",
"G. c #553646",
"H. c #563747",
"J. c #5B3741",
"K. c #583742",
"L. c #503941",
"P. c #513A40",
"I. c #533942",
"U. c #513A42",
"Y. c #523B43",
"T. c #543940",
"R. c #573840",
"E. c #573943",
"W. c #543A43",
"Q. c #523B45",
"!. c #563844",
"~. c #573945",
"^. c #553B44",
"/. c #573847",
"(. c #543D45",
"). c #583941",
"_. c #593843",
"`. c #583845",
"'. c #5B3A45",
"]. c #593946",
"[. c #5B3947",
"{. c #583A46",
"}. c #5F3B45",
"|. c #583D44",
" X c #523B4B",
".X c #593A49",
"XX c #593A4A",
"oX c #57404A",
"OX c #55404F",
"+X c #5C4349",
"@X c #674748",
"#X c #69494C",
"$X c #68484D",
"%X c #6B4B4C",
"&X c #69494E",
"*X c #68494F",
"=X c #6B484F",
"-X c #6C4C4F",
";X c #644451",
":X c #684752",
">X c #6A4952",
",X c #684A52",
"<X c #6A4B53",
"1X c #6C4950",
"2X c #6E4B52",
"3X c #6D4D50",
"4X c #6D4C53",
"5X c #6C4D53",
"6X c #694954",
"7X c #6A4954",
"8X c #694956",
"9X c #6C4B54",
"0X c #6C4B56",
"qX c #6D4C55",
"wX c #6D4E54",
"eX c #6E4F55",
"rX c #6D4F57",
"tX c #6F5159",
"yX c #725253",
"uX c #715154",
"iX c #705055",
"pX c #725255",
"aX c #735057",
"sX c #715257",
"dX c #735356",
"fX c #745457",
"gX c #73545A",
"hX c #74555B",
/* pixels */
"{ F.[ 4.8.J.} } J.}._.[.[.v.c.[ ",
"N.8X:X8X,XwX1X1X2XaX9X9X9X8X;XN.",
"/ ,XwXwX&X-X-X%X@X-X@X$X#XrX1X2.",
"6.sXgXgXiXuXyXyXfXfXfXsXrXgXrX4.",
"C b.b.E.0.0.0.0.N.0.0.).6.E.N.D ",
"I F.c.{.{.F.N.{.N.6.4.{././..X;.",
"x Z.p.Z.b.F.Z.N./..XF.Z.n.t.u.) ",
"t K ( K c K P D C R F K I K K g ",
"N  .(.@.@.A ~ |.e.e.>.E.L.e. .l ",
"k L.L.e.E.A >.e.E.<.+Xe.1.>.(.- ",
"4 O.j.1.:.f @.e.>.L.>.@.oXj.:.k ",
"n N g % # w % p # # p 4 4 N g + ",
"3 _ OXl.s.s.u.s.u.% M ] ` V d b ",
"u u.X.k.s.s. Xs.y.% u.  X.3 3 4 ",
"< | | *.Q n Q T  .w w Y + a X a ",
"= e - . . s - 9 - 4 . 9 > = , = "
};
