/* XPM */
static char * visible_wall1_xpm[] = {
"16 16 10 1",
" 	c #4C2F49",
".	c #593756",
"+	c #6E4A48",
"@	c #78514F",
"#	c #3D253B",
"$	c #543740",
"%	c #483040",
"&	c #25131A",
"*	c #422C3B",
"=	c #4F3740",
"     .  .....   ",
" ++++++++++++++ ",
" ++++++++++++++ ",
" @@@@@@@@@@@@@@ ",
"#$$$$$$$$$$$$$$#",
"#$$$$$$$$$$$$$$ ",
"#%$$$$$$$$$$$$%#",
"&###############",
"#%$$$$$$$$$$$$%#",
"#$$$$$$$$$$$$$$&",
"&%$$$$$$$$$$$$%#",
"###&&&&&&&&&&##&",
"&*====*&*=====*#",
"&======&=======&",
"&******&*******&",
"&&&&&&&&&&&&&&&&"};
